HIERARCHY
ROOT reference
{
  OFFSET 0 0 0
  CHANNELS 6 Xposition Yposition Zposition Zrotation Xrotation Yrotation
  JOINT Hips
  {
    OFFSET 368.823 89.7904 194.012
    CHANNELS 3 Zrotation Xrotation Yrotation
    JOINT RightUpLeg
    {
      OFFSET -9.24587 -1.53924 -0.0496539
      CHANNELS 3 Zrotation Xrotation Yrotation
      JOINT RightLeg
      {
        OFFSET 0.0288962 -41.8853 0.065208
        CHANNELS 3 Zrotation Xrotation Yrotation
        JOINT RightFoot
        {
          OFFSET -0.153961 -42.496 -0.469978
          CHANNELS 3 Zrotation Xrotation Yrotation
          End Site
          {
            OFFSET 0 -7.69 17.5
          }
        }
      }
    }
    JOINT LeftUpLeg
    {
      OFFSET 9.30368 -1.65799 0.0114032
      CHANNELS 3 Zrotation Xrotation Yrotation
      JOINT LeftLeg
      {
        OFFSET 0.0812002 -41.8405 -0.136291
        CHANNELS 3 Zrotation Xrotation Yrotation
        JOINT LeftFoot
        {
          OFFSET 0.408244 -41.1613 0.400562
          CHANNELS 3 Zrotation Xrotation Yrotation
          End Site
          {
            OFFSET 0 -7.69 17.5
          }
        }
      }
    }
    JOINT Spine
    {
      OFFSET 0.0091145 14.2923 0.0603898
      CHANNELS 3 Zrotation Xrotation Yrotation
      JOINT Spine1
      {
        OFFSET 0.0313032 9.72692 0.0269052
        CHANNELS 3 Zrotation Xrotation Yrotation
        JOINT Spine2
        {
          OFFSET 0.0416827 10.1254 -0.000588186
          CHANNELS 3 Zrotation Xrotation Yrotation
          JOINT Spine3
          {
            OFFSET 0.0353017 9.71596 0.00525809
            CHANNELS 3 Zrotation Xrotation Yrotation
            JOINT Neck
            {
              OFFSET 0.0870676 10.3793 0.0454457
              CHANNELS 3 Zrotation Xrotation Yrotation
              JOINT Head
              {
                OFFSET 0.0878806 9.48152 0.0233162
                CHANNELS 3 Zrotation Xrotation Yrotation
                End Site
                {
                  OFFSET 0 15.95 0
                }
              }
            }
            JOINT RightShoulder
            {
              OFFSET -3.16008 6.92912 0.0289115
              CHANNELS 3 Zrotation Xrotation Yrotation
              JOINT RightArm
              {
                OFFSET -12.7589 0.0216905 0.0632467
                CHANNELS 3 Zrotation Xrotation Yrotation
                JOINT RightForeArm
                {
                  OFFSET -26.506 -0.0577999 0.0567862
                  CHANNELS 3 Zrotation Xrotation Yrotation
                  JOINT RightHand
                  {
                    OFFSET -25.9836 -0.0526551 -0.00138994
                    CHANNELS 3 Zrotation Xrotation Yrotation
                    JOINT RightHandThumb1
                    {
                      OFFSET -2.48905 0.190105 3.12053
                      CHANNELS 3 Zrotation Xrotation Yrotation
                      JOINT RightHandThumb2
                      {
                        OFFSET -3.68274 0 0
                        CHANNELS 3 Zrotation Xrotation Yrotation
                        JOINT RightHandThumb3
                        {
                          OFFSET -2.55832 0 0
                          CHANNELS 3 Zrotation Xrotation Yrotation
                          End Site
                          {
                            OFFSET -2.194 0 0
                          }
                        }
                      }
                    }
                    JOINT RightInHandIndex
                    {
                      OFFSET -3.22368 0.508421 1.97842
                      CHANNELS 3 Zrotation Xrotation Yrotation
                      JOINT RightHandIndex1
                      {
                        OFFSET -5.21684 -0.091368 0.999158
                        CHANNELS 3 Zrotation Xrotation Yrotation
                        JOINT RightHandIndex2
                        {
                          OFFSET -3.61937 0 0
                          CHANNELS 3 Zrotation Xrotation Yrotation
                          JOINT RightHandIndex3
                          {
                            OFFSET -2.0521 0 0
                            CHANNELS 3 Zrotation Xrotation Yrotation
                            End Site
                            {
                              OFFSET -1.805 0 0
                            }
                          }
                        }
                      }
                    }
                    JOINT RightInHandMiddle
                    {
                      OFFSET -3.38211 0.517263 0.756737
                      CHANNELS 3 Zrotation Xrotation Yrotation
                      JOINT RightHandMiddle1
                      {
                        OFFSET -5.17411 -0.084 0.313895
                        CHANNELS 3 Zrotation Xrotation Yrotation
                        JOINT RightHandMiddle2
                        {
                          OFFSET -3.94947 0 0
                          CHANNELS 3 Zrotation Xrotation Yrotation
                          JOINT RightHandMiddle3
                          {
                            OFFSET -2.47579 0 0
                            CHANNELS 3 Zrotation Xrotation Yrotation
                            End Site
                            {
                              OFFSET -1.975 0 0
                            }
                          }
                        }
                      }
                    }
                    JOINT RightInHandRing
                    {
                      OFFSET -3.36516 0.537895 -0.128947
                      CHANNELS 3 Zrotation Xrotation Yrotation
                      JOINT RightHandRing1
                      {
                        OFFSET -4.63474 -0.022105 -0.478947
                        CHANNELS 3 Zrotation Xrotation Yrotation
                        JOINT RightHandRing2
                        {
                          OFFSET -3.44238 0 0
                          CHANNELS 3 Zrotation Xrotation Yrotation
                          JOINT RightHandRing3
                          {
                            OFFSET -2.3881 0 0
                            CHANNELS 3 Zrotation Xrotation Yrotation
                            End Site
                            {
                              OFFSET -1.857 0 0
                            }
                          }
                        }
                      }
                    }
                    JOINT RightInHandPinky
                    {
                      OFFSET -3.16105 0.469368 -1.20179
                      CHANNELS 3 Zrotation Xrotation Yrotation
                      JOINT RightHandPinky1
                      {
                        OFFSET -4.14105 -0.022105 -1.09053
                        CHANNELS 3 Zrotation Xrotation Yrotation
                        JOINT RightHandPinky2
                        {
                          OFFSET -2.75653 0 0
                          CHANNELS 3 Zrotation Xrotation Yrotation
                          JOINT RightHandPinky3
                          {
                            OFFSET -1.74189 0 0
                            CHANNELS 3 Zrotation Xrotation Yrotation
                            End Site
                            {
                              OFFSET -1.645 0 0
                            }
                          }
                        }
                      }
                    }
                  }
                }
              }
            }
            JOINT LeftShoulder
            {
              OFFSET 3.24363 6.91883 -0.0263005
              CHANNELS 3 Zrotation Xrotation Yrotation
              JOINT LeftArm
              {
                OFFSET 12.8387 -0.0254922 -0.065819
                CHANNELS 3 Zrotation Xrotation Yrotation
                JOINT LeftForeArm
                {
                  OFFSET 26.503 -0.0679028 -0.0690065
                  CHANNELS 3 Zrotation Xrotation Yrotation
                  JOINT LeftHand
                  {
                    OFFSET 25.9897 -0.0384179 -0.0536179
                    CHANNELS 3 Zrotation Xrotation Yrotation
                    JOINT LeftHandThumb1
                    {
                      OFFSET 2.48905 0.190105 3.12053
                      CHANNELS 3 Zrotation Xrotation Yrotation
                      JOINT LeftHandThumb2
                      {
                        OFFSET 3.68274 0 0
                        CHANNELS 3 Zrotation Xrotation Yrotation
                        JOINT LeftHandThumb3
                        {
                          OFFSET 2.55832 0 0
                          CHANNELS 3 Zrotation Xrotation Yrotation
                          End Site
                          {
                            OFFSET 2.194 0 0
                          }
                        }
                      }
                    }
                    JOINT LeftInHandIndex
                    {
                      OFFSET 3.22368 0.508421 1.97842
                      CHANNELS 3 Zrotation Xrotation Yrotation
                      JOINT LeftHandIndex1
                      {
                        OFFSET 5.21684 -0.091368 0.999158
                        CHANNELS 3 Zrotation Xrotation Yrotation
                        JOINT LeftHandIndex2
                        {
                          OFFSET 3.61937 0 0
                          CHANNELS 3 Zrotation Xrotation Yrotation
                          JOINT LeftHandIndex3
                          {
                            OFFSET 2.0521 0 0
                            CHANNELS 3 Zrotation Xrotation Yrotation
                            End Site
                            {
                              OFFSET 1.805 0 0
                            }
                          }
                        }
                      }
                    }
                    JOINT LeftInHandMiddle
                    {
                      OFFSET 3.38211 0.517263 0.756737
                      CHANNELS 3 Zrotation Xrotation Yrotation
                      JOINT LeftHandMiddle1
                      {
                        OFFSET 5.17411 -0.084 0.313895
                        CHANNELS 3 Zrotation Xrotation Yrotation
                        JOINT LeftHandMiddle2
                        {
                          OFFSET 3.94947 0 0
                          CHANNELS 3 Zrotation Xrotation Yrotation
                          JOINT LeftHandMiddle3
                          {
                            OFFSET 2.47579 0 0
                            CHANNELS 3 Zrotation Xrotation Yrotation
                            End Site
                            {
                              OFFSET 1.975 0 0
                            }
                          }
                        }
                      }
                    }
                    JOINT LeftInHandRing
                    {
                      OFFSET 3.36516 0.537895 -0.128947
                      CHANNELS 3 Zrotation Xrotation Yrotation
                      JOINT LeftHandRing1
                      {
                        OFFSET 4.63474 -0.022105 -0.478947
                        CHANNELS 3 Zrotation Xrotation Yrotation
                        JOINT LeftHandRing2
                        {
                          OFFSET 3.44238 0 0
                          CHANNELS 3 Zrotation Xrotation Yrotation
                          JOINT LeftHandRing3
                          {
                            OFFSET 2.3881 0 0
                            CHANNELS 3 Zrotation Xrotation Yrotation
                            End Site
                            {
                              OFFSET 1.857 0 0
                            }
                          }
                        }
                      }
                    }
                    JOINT LeftInHandPinky
                    {
                      OFFSET 3.16105 0.469368 -1.20179
                      CHANNELS 3 Zrotation Xrotation Yrotation
                      JOINT LeftHandPinky1
                      {
                        OFFSET 4.14105 -0.022105 -1.09053
                        CHANNELS 3 Zrotation Xrotation Yrotation
                        JOINT LeftHandPinky2
                        {
                          OFFSET 2.75653 0 0
                          CHANNELS 3 Zrotation Xrotation Yrotation
                          JOINT LeftHandPinky3
                          {
                            OFFSET 1.74189 0 0
                            CHANNELS 3 Zrotation Xrotation Yrotation
                            End Site
                            {
                              OFFSET 1.645 0 0
                            }
                          }
                        }
                      }
                    }
                  }
                }
              }
            }
          }
        }
      }
    }
  }
}
MOTION
Frames: 2
Frame Time: 0.00833333
3.150000000000000000e+03 0.000000000000000000e+00 0.000000000000000000e+00 0.000000000000000000e+00 0.000000000000000000e+00 0.000000000000000000e+00 2.420649999999999835e+01 1.084740000000010696e-01 -1.306529999999999632e+02 3.524560000000000315e+01 -3.689969999999999573e+01 3.451080000000000325e+01 -9.523030000000002104e+00 1.867960000000000065e+01 6.679790000000007666e-01 6.424850000000001948e+00 5.861780000000000435e+00 4.988720000000000709e+01 3.217200000000000415e+01 -1.930969999999999942e+01 2.262550000000000239e+01 -2.585110000000000241e+01 4.229489999999999839e+01 3.064460000000000406e+01 3.312249999999998806e-01 -2.614420000000000144e+01 5.083179999999998699e+00 -6.189210000000000989e+00 -3.804350000000000787e+00 -1.237290000000000312e+01 -1.472840000000000149e+00 -1.211350000000000371e+00 -2.992440000000001099e+00 -2.460250000000000270e+00 -2.073319999999999830e+00 -4.853319999999998302e+00 -5.720569999999999267e-01 -2.921010000000000550e-01 2.691860000000000142e+00 -6.180490000000000705e-01 -4.950440000000000396e+00 3.747400000000000375e+01 -9.379300000000000637e+00 7.513939999999999841e+00 2.767640000000000455e+01 2.978099999999999525e+00 2.394920000000002602e-01 3.153610000000000468e+00 2.621269999999999811e+01 -6.473739999999999384e+01 -4.594399999999996709e+00 1.388069999999999737e+01 -1.125990000000000002e+01 1.219219999999999828e+02 3.210850000000000204e+00 -3.302969999999999118e+01 1.138829999999999920e+01 2.818400000000000105e+01 1.072940000000000005e+01 1.915919999999999845e+01 8.074050000000000316e-15 0.000000000000000000e+00 -1.000000000000000000e+01 9.038569999999997301e-15 3.180549999999999982e-15 -1.000000000000000000e+01 1.073440000000000182e-14 -1.590280000000000274e-15 3.180550000000000376e-15 1.998179999999999978e+01 8.718970000000000331e-01 2.396399999999999864e+00 2.400000000000000000e+01 0.000000000000000000e+00 2.385420000000000174e-14 2.000000000000000000e+01 9.541659999999998934e-15 4.850350000000000254e-14 1.073440000000000182e-14 -1.590280000000000274e-15 3.180550000000000376e-15 2.000000000000000000e+01 -7.951389999999999226e-15 1.431250000000000212e-14 2.400000000000000000e+01 9.541660000000002090e-15 2.862499999999999793e-14 2.000000000000000000e+01 -1.590279999999999880e-15 2.683589999999999574e-14 1.073440000000000182e-14 -1.590280000000000274e-15 3.180550000000000376e-15 1.997479999999999833e+01 -1.025649999999999951e+00 -2.819380000000000219e+00 2.400000000000000000e+01 6.361109999999998163e-15 1.192709999999999929e-14 2.000000000000000000e+01 1.590279999999999801e-14 4.603109999999999810e-14 1.073440000000000182e-14 -1.590280000000000274e-15 3.180550000000000376e-15 1.978150000000000119e+01 -3.009479999999999933e+00 -8.305149999999999366e+00 2.400000000000000000e+01 -1.590280000000000274e-15 1.305770000000000074e-14 2.000000000000000000e+01 1.510760000000000118e-14 3.578119999999999853e-14 1.643440000000000012e+00 -1.983479999999999777e+01 -4.974130000000000251e+01 -5.947030000000001593e+00 2.427639999999999887e+01 -1.185469999999999828e+02 3.592730000000000246e+01 -1.614570000000000505e+01 -3.576910000000000167e+01 -3.064229999999999521e+01 -9.933960000000002566e+00 -1.645149999999999935e+01 -2.818400000000000105e+01 1.072940000000000005e+01 -1.915919999999999845e+01 -7.692180000000000286e-15 -1.590280000000000116e-14 1.000000000000000000e+01 9.397539999999999267e-15 -6.361110000000000530e-15 1.000000000000000000e+01 -1.987850000000011189e-16 -6.361110000000001319e-15 -6.361109999999999741e-15 -1.998179999999999978e+01 8.718970000000000331e-01 -2.396399999999999864e+00 -2.400000000000000000e+01 -7.951389999999999226e-15 -4.770829999999998678e-15 -2.000000000000000000e+01 1.590279999999999880e-15 2.186629999999999798e-15 -1.987850000000011189e-16 -6.361110000000001319e-15 -6.361109999999999741e-15 -2.000000000000000000e+01 -7.951389999999999226e-15 -4.770830000000000256e-15 -2.400000000000000000e+01 -3.180549999999999982e-15 -3.975689999999999725e-15 -2.000000000000000000e+01 1.590279999999999880e-15 -1.202649999999999929e-14 -1.987850000000011189e-16 -6.361110000000001319e-15 -6.361109999999999741e-15 -1.997479999999999833e+01 -1.025649999999999951e+00 2.819380000000000219e+00 -2.400000000000000000e+01 7.951390000000003171e-16 -1.113189999999999773e-14 -2.000000000000000000e+01 -3.180550000000000376e-15 5.864149999999998860e-15 -1.987850000000011189e-16 -6.361110000000001319e-15 -6.361109999999999741e-15 -1.978150000000000119e+01 -3.009479999999999933e+00 8.305149999999999366e+00 -2.400000000000000000e+01 -1.192710000000000206e-15 0.000000000000000000e+00 -2.000000000000000000e+01 5.963539999999999081e-15 -9.541660000000000512e-15
3.150000000000000000e+03 0.000000000000000000e+00 0.000000000000000000e+00 0.000000000000000000e+00 0.000000000000000000e+00 0.000000000000000000e+00 2.419510000000000360e+01 9.507029999999971892e-02 -1.306719999999999970e+02 3.520090000000000430e+01 -3.699520000000001119e+01 3.470090000000000430e+01 -9.447559999999999292e+00 1.875589999999999691e+01 6.162050000000007799e-01 6.575349999999998474e+00 5.832209999999999894e+00 4.974090000000001055e+01 3.219200000000000728e+01 -1.948380000000000223e+01 2.293940000000000623e+01 -2.573610000000000397e+01 4.243379999999999797e+01 3.040050000000000097e+01 4.755979999999997432e-01 -2.590259999999999607e+01 5.222050000000001191e+00 -6.235340000000000771e+00 -3.767600000000000282e+00 -1.217830000000000013e+01 -1.486259999999999692e+00 -1.201160000000000005e+00 -2.943350000000000133e+00 -2.482120000000000104e+00 -2.056899999999999729e+00 -4.774510000000001142e+00 -5.706689999999999818e-01 -2.916109999999999536e-01 2.689199999999999591e+00 -6.417819999999999636e-01 -4.906349999999998879e+00 3.720280000000001053e+01 -9.382339999999999236e+00 7.444510000000001071e+00 2.780160000000000409e+01 3.078250000000000597e+00 2.062919999999994758e-01 3.167610000000001591e+00 2.692460000000000520e+01 -6.440450000000001296e+01 -4.117659999999997211e+00 1.396480000000000032e+01 -1.131440000000000090e+01 1.218079999999999927e+02 3.489169999999999661e+00 -3.300739999999999696e+01 1.157179999999999787e+01 2.818400000000000105e+01 1.072940000000000005e+01 1.915919999999999845e+01 1.007069999999999855e-14 1.590280000000000116e-14 -1.000000000000000000e+01 1.928820000000000131e-14 6.361110000000000530e-15 -1.000000000000000000e+01 1.967970000000000146e-14 7.951390000000003171e-16 4.770830000000001045e-15 1.998179999999999978e+01 8.718970000000000331e-01 2.396399999999999864e+00 2.400000000000000000e+01 6.361109999999999741e-15 2.703469999999999574e-14 2.000000000000000000e+01 3.180549999999999193e-15 5.208159999999999338e-14 1.967970000000000146e-14 7.951390000000003171e-16 4.770830000000001045e-15 2.000000000000000000e+01 -3.180550000000000376e-15 1.590279999999999801e-14 2.400000000000000000e+01 9.541659999999998934e-15 3.021529999999999697e-14 2.000000000000000000e+01 -4.770830000000000256e-15 2.862499999999999793e-14 1.967970000000000146e-14 7.951390000000003171e-16 4.770830000000001045e-15 1.997479999999999833e+01 -1.025649999999999951e+00 -2.819380000000000219e+00 2.400000000000000000e+01 1.113189999999999931e-14 1.590279999999999801e-14 2.000000000000000000e+01 1.431249999999999897e-14 4.572049999999999183e-14 1.967970000000000146e-14 7.951390000000003171e-16 4.770830000000001045e-15 1.978150000000000119e+01 -3.009479999999999933e+00 -8.305149999999999366e+00 2.400000000000000000e+01 -7.951389999999999226e-16 1.351739999999999991e-14 2.000000000000000000e+01 1.590279999999999801e-14 3.498609999999999317e-14 1.768379999999999619e+00 -1.979009999999999536e+01 -4.969959999999999667e+01 -5.953269999999999840e+00 2.434409999999999741e+01 -1.184929999999999950e+02 3.581980000000000075e+01 -1.613669999999999760e+01 -3.549700000000000699e+01 -3.069019999999999726e+01 -9.876250000000000639e+00 -1.635759999999999792e+01 -2.818400000000000105e+01 1.072940000000000005e+01 -1.915919999999999845e+01 -6.323950000000000534e-15 -1.908330000000000147e-14 1.000000000000000000e+01 8.298810000000001231e-15 -1.272219999999999993e-14 1.000000000000000000e+01 -1.063500000000000025e-14 -5.963540000000000659e-15 -7.951389999999999226e-15 -1.998179999999999978e+01 8.718970000000000331e-01 -2.396399999999999864e+00 -2.400000000000000000e+01 -7.951389999999999226e-15 -9.541660000000000512e-15 -2.000000000000000000e+01 0.000000000000000000e+00 4.969619999999998897e-15 -1.063500000000000025e-14 -5.963540000000000659e-15 -7.951389999999999226e-15 -2.000000000000000000e+01 -1.033680000000000183e-14 -6.361110000000000530e-15 -2.400000000000000000e+01 0.000000000000000000e+00 -1.590280000000000471e-15 -2.000000000000000000e+01 -1.590280000000000077e-15 -1.202649999999999929e-14 -1.063500000000000025e-14 -5.963540000000000659e-15 -7.951389999999999226e-15 -1.997479999999999833e+01 -1.025649999999999951e+00 2.819380000000000219e+00 -2.400000000000000000e+01 3.180549999999999587e-15 -1.113189999999999931e-14 -2.000000000000000000e+01 -2.385420000000000017e-15 6.361109999999999741e-15 -1.063500000000000025e-14 -5.963540000000000659e-15 -7.951389999999999226e-15 -1.978150000000000119e+01 -3.009479999999999933e+00 8.305149999999999366e+00 -2.400000000000000000e+01 -7.951390000000002185e-16 -3.975690000000000513e-16 -2.000000000000000000e+01 5.565969999999999210e-15 -9.939229999999998017e-15
